# xmcd
#
# Track frame offsets: 
#        150
#        15624
#        30927
#        44836
#        62786
#        79619
#        93569
#        116485
#        129487
#        150776
#
# Disc length: 2123 seconds
#
# Revision: 0
# Processed by: cddbd v1.5.2PL0 Copyright (c) Steve Scherf et al.
# Submitted via: ExactAudioCopy v1.0b4
#
DISCID=7108490a
DTITLE=Johnny Copeland - Make My Home Where I Hang My Hat (LP)
DYEAR=1982
DGENRE=Blues
TTITLE0=Natural Born Believer
TTITLE1=Make My Home Where I Hang My Hat
TTITLE2=Devil's Hand
TTITLE3=Cold Outside
TTITLE4=Love Utopia
TTITLE5=Boogie Woogie Nighthawk
TTITLE6=Honky Tonkin'
TTITLE7=Well Well Baby-La
TTITLE8=Old Man Blues
TTITLE9=Rock 'N' Roll Lilly
EXTD=
EXTT0=
EXTT1=
EXTT2=
EXTT3=
EXTT4=
EXTT5=
EXTT6=
EXTT7=
EXTT8=
EXTT9=
PLAYORDER=
